<svg width="818.341162109375px" height="146.01230468749998px" xmlns="http://www.w3.org/2000/svg" viewBox="-159.1705810546875 1.9938476562500114 818.341162109375 146.01230468749998" style="background: rgb(238, 238, 238);" preserveAspectRatio="xMidYMid"><defs><linearGradient id="editing-rainbow-gradient" x1="0.058526203570536506" x2="0.9414737964294635" y1="0.2652642186070546" y2="0.7347357813929454" gradientUnits="objectBoundingBox"><stop offset="0.00" stop-color="#ab6841"></stop><stop offset="0.17" stop-color="#cf9866"></stop><stop offset="0.34" stop-color="#e9c495"></stop><stop offset="0.51" stop-color="#526243"></stop><stop offset="0.68" stop-color="#2d3b2a"></stop><stop offset="0.85" stop-color="#6c9668"></stop><stop offset="1.00" stop-color="#9bba9a"></stop></linearGradient><filter id="editing-rainbow" x="-100%" y="-100%" width="300%" height="300%"><feMorphology operator="dilate" radius="1,1.1" in="SourceGraphic" result="dilate"></feMorphology><feColorMatrix in="dilate" result="color" type="matrix" values="0.7 0 0 0 0  0 0.7 0 0 0  0 0 0.7 0 0  0 0 0 1 0"></feColorMatrix><feOffset dy="1.1" result="offset"></feOffset><feGaussianBlur stdDeviation="3"></feGaussianBlur><feOffset dy="3"></feOffset><feColorMatrix result="blur" type="matrix" values="0.7 0 0 0 0  0 0.7 0 0 0  0 0 0.7 0 0  0 0 0 1 0"></feColorMatrix><feMerge><feMergeNode in="blur"></feMergeNode><feMergeNode in="offset"></feMergeNode><feMergeNode in="SourceGraphic"></feMergeNode></feMerge></filter></defs><g filter="url(#editing-rainbow)"><g transform="translate(-42.765322268009186, 102.52499961853027)"><path d="M21.12-8.64L21.12-8.64Q19.97-4.85 17.57-2.42L17.57-2.42L17.57-2.42Q15.17 0 11.33 0L11.33 0L11.33 0Q8.50 0 7.01-1.99L7.01-1.99L7.01-1.99Q5.52-3.98 5.52-6.96L5.52-6.96L5.52-28.42L5.52-28.42Q5.52-29.66 4.99-30.48L4.99-30.48L4.99-30.48Q4.46-31.30 3.31-31.30L3.31-31.30L3.31-31.30Q2.59-31.30 1.75-30.82L1.75-30.82L1.75-30.82Q0.91-30.34 0.48-29.71L0.48-29.71L-0.19-30.29L-0.19-30.29Q0.43-31.68 1.85-32.74L1.85-32.74L1.85-32.74Q3.26-33.79 4.66-33.79L4.66-33.79L4.66-33.79Q7.15-33.79 8.57-32.02L8.57-32.02L8.57-32.02Q9.98-30.24 9.98-27.94L9.98-27.94L9.98-8.83L9.98-8.83Q9.98-6.19 10.61-4.39L10.61-4.39L10.61-4.39Q11.23-2.59 13.34-2.59L13.34-2.59L13.34-2.59Q16.08-2.59 17.86-5.30L17.86-5.30L17.86-5.30Q19.63-8.02 20.45-11.62L20.45-11.62L20.45-11.62Q21.26-15.22 21.26-17.90L21.26-17.90L21.26-32.59L25.68-34.22L25.68-1.25L25.68-1.25Q25.68 1.97 24.34 4.70L24.34 4.70L24.34 4.70Q22.99 7.44 20.47 9.07L20.47 9.07L20.47 9.07Q17.95 10.70 14.64 10.70L14.64 10.70L14.64 10.70Q10.42 10.70 7.39 8.06L7.39 8.06L11.28 4.80L11.28 4.80Q12 6.19 13.44 7.37L13.44 7.37L13.44 7.37Q14.88 8.54 16.51 8.54L16.51 8.54L16.51 8.54Q18.19 8.54 19.27 7.63L19.27 7.63L19.27 7.63Q20.35 6.72 20.81 5.42L20.81 5.42L20.81 5.42Q21.26 4.13 21.26 3.02L21.26 3.02L21.26-8.64L21.12-8.64ZM42.58-24.43L43.44-23.42L43.44-23.42Q39.84-21.12 37.78-18.29L37.78-18.29L37.78-18.29Q35.71-15.46 35.71-11.62L35.71-11.62L35.71-11.62Q35.71-9.46 36.62-7.27L36.62-7.27L36.62-7.27Q37.54-5.09 39.36-3.65L39.36-3.65L39.36-3.65Q41.18-2.21 43.73-2.21L43.73-2.21L43.73-2.21Q45.79-2.21 47.40-3.17L47.40-3.17L47.40-3.17Q49.01-4.13 49.90-5.76L49.90-5.76L49.90-5.76Q50.78-7.39 50.78-9.36L50.78-9.36L50.78-9.36Q50.78-11.62 49.42-13.97L49.42-13.97L49.42-13.97Q48.05-16.32 45.84-17.95L45.84-17.95L45.84-17.95Q43.63-19.58 41.33-19.78L41.33-19.78L41.33-19.78Q42.29-20.74 43.63-21.79L43.63-21.79L43.63-21.79Q44.98-22.85 46.37-23.86L46.37-23.86L46.37-23.86Q49.68-22.75 51.60-19.66L51.60-19.66L51.60-19.66Q53.52-16.56 53.52-12.77L53.52-12.77L53.52-12.77Q53.52-9.41 52.15-6.31L52.15-6.31L52.15-6.31Q50.78-3.22 48.14-1.27L48.14-1.27L48.14-1.27Q45.50 0.67 41.90 0.67L41.90 0.67L41.90 0.67Q39.02 0.67 36.60-0.74L36.60-0.74L36.60-0.74Q34.18-2.16 32.78-4.61L32.78-4.61L32.78-4.61Q31.39-7.06 31.39-10.03L31.39-10.03L31.39-10.03Q31.39-15.26 34.49-19.10L34.49-19.10L34.49-19.10Q37.58-22.94 42.58-24.43L42.58-24.43ZM78.86-24.67L78.86-4.18L78.86-4.18Q78.86-3.46 79.22-3L79.22-3L79.22-3Q79.58-2.54 80.26-2.54L80.26-2.54L80.26-2.54Q81.26-2.54 82.70-4.42L82.70-4.42L83.42-3.70L83.42-3.70Q82.42-1.54 81-0.65L81-0.65L81-0.65Q79.58 0.24 79.58 0.24L79.58 0.24L79.58 0.24Q79.58 0.24 78.34 0.24L78.34 0.24L78.34 0.24Q76.80 0.24 76.01-0.62L76.01-0.62L76.01-0.62Q75.22-1.49 74.88-3.72L74.88-3.72L74.88-3.72Q74.54-5.95 74.54-10.37L74.54-10.37L74.54-10.37Q74.54-13.01 74.59-14.59L74.59-14.59L74.21-15.55L74.06-15.55L74.06-15.55Q72.82-9.65 70.58-4.54L70.58-4.54L70.58-4.54Q68.35 0.58 64.22 0.58L64.22 0.58L64.22 0.58Q62.69 0.58 61.99-0.19L61.99-0.19L61.99-0.19Q61.30-0.96 61.15-2.28L61.15-2.28L61.15-2.28Q61.01-3.60 61.01-6.34L61.01-6.34L61.01-19.87L61.01-19.87Q61.01-20.69 60.65-21.17L60.65-21.17L60.65-21.17Q60.29-21.65 59.66-21.65L59.66-21.65L59.66-21.65Q58.51-21.65 57.07-19.73L57.07-19.73L56.50-20.50L56.50-20.50Q57.26-22.32 58.44-23.21L58.44-23.21L58.44-23.21Q59.62-24.10 60.65-24.31L60.65-24.31L60.65-24.31Q61.68-24.53 61.68-24.38L61.68-24.38L61.68-24.38Q61.63-24.38 61.54-24.36L61.54-24.36L61.54-24.36Q61.44-24.34 61.25-24.34L61.25-24.34L61.25-24.34Q65.38-24.34 65.38-19.58L65.38-19.58L65.38-5.76L65.38-5.76Q65.38-4.70 65.62-4.25L65.62-4.25L65.62-4.25Q65.86-3.79 66.19-3.79L66.19-3.79L66.19-3.79Q68.26-3.79 70.03-7.82L70.03-7.82L70.03-7.82Q71.81-11.86 72.94-16.70L72.94-16.70L72.94-16.70Q74.06-21.55 74.06-22.51L74.06-22.51L78.86-24.67ZM93.36-36.77L93.36-24L100.03-24L98.59-20.93L93.36-20.93L93.36-4.03L93.36-4.03Q93.36-3.31 93.79-2.86L93.79-2.86L93.79-2.86Q94.22-2.40 94.94-2.40L94.94-2.40L94.94-2.40Q95.95-2.40 97.73-4.27L97.73-4.27L98.40-3.55L98.40-3.55Q97.49-1.73 96.22-0.84L96.22-0.84L96.22-0.84Q94.94 0.05 93.82 0.26L93.82 0.26L93.82 0.26Q92.69 0.48 92.69 0.29L92.69 0.29L92.69 0.29Q92.74 0.29 92.83 0.26L92.83 0.26L92.83 0.26Q92.93 0.24 93.12 0.24L93.12 0.24L93.12 0.24Q88.90 0.24 88.90-4.61L88.90-4.61L88.90-20.93L85.30-20.93L86.78-24L88.90-24L88.90-35.04L93.36-36.77ZM123.94-24.67L123.94-4.18L123.94-4.18Q123.94-3.46 124.30-3L124.30-3L124.30-3Q124.66-2.54 125.33-2.54L125.33-2.54L125.33-2.54Q126.34-2.54 127.78-4.42L127.78-4.42L128.50-3.70L128.50-3.70Q127.49-1.54 126.07-0.65L126.07-0.65L126.07-0.65Q124.66 0.24 124.66 0.24L124.66 0.24L124.66 0.24Q124.66 0.24 123.41 0.24L123.41 0.24L123.41 0.24Q121.87 0.24 121.08-0.62L121.08-0.62L121.08-0.62Q120.29-1.49 119.95-3.72L119.95-3.72L119.95-3.72Q119.62-5.95 119.62-10.37L119.62-10.37L119.62-10.37Q119.62-13.01 119.66-14.59L119.66-14.59L119.28-15.55L119.14-15.55L119.14-15.55Q117.89-9.65 115.66-4.54L115.66-4.54L115.66-4.54Q113.42 0.58 109.30 0.58L109.30 0.58L109.30 0.58Q107.76 0.58 107.06-0.19L107.06-0.19L107.06-0.19Q106.37-0.96 106.22-2.28L106.22-2.28L106.22-2.28Q106.08-3.60 106.08-6.34L106.08-6.34L106.08-19.87L106.08-19.87Q106.08-20.69 105.72-21.17L105.72-21.17L105.72-21.17Q105.36-21.65 104.74-21.65L104.74-21.65L104.74-21.65Q103.58-21.65 102.14-19.73L102.14-19.73L101.57-20.50L101.57-20.50Q102.34-22.32 103.51-23.21L103.51-23.21L103.51-23.21Q104.69-24.10 105.72-24.31L105.72-24.31L105.72-24.31Q106.75-24.53 106.75-24.38L106.75-24.38L106.75-24.38Q106.70-24.38 106.61-24.36L106.61-24.36L106.61-24.36Q106.51-24.34 106.32-24.34L106.32-24.34L106.32-24.34Q110.45-24.34 110.45-19.58L110.45-19.58L110.45-5.76L110.45-5.76Q110.45-4.70 110.69-4.25L110.69-4.25L110.69-4.25Q110.93-3.79 111.26-3.79L111.26-3.79L111.26-3.79Q113.33-3.79 115.10-7.82L115.10-7.82L115.10-7.82Q116.88-11.86 118.01-16.70L118.01-16.70L118.01-16.70Q119.14-21.55 119.14-22.51L119.14-22.51L123.94-24.67ZM153.07-12.67L153.07-12.67Q153.07-9.74 151.20-6.62L151.20-6.62L151.20-6.62Q149.33-3.50 146.57-1.46L146.57-1.46L146.57-1.46Q143.81 0.58 141.36 0.58L141.36 0.58L141.36 0.58Q137.42 0.58 135.19-2.09L135.19-2.09L135.19-2.09Q132.96-4.75 132.96-8.88L132.96-8.88L132.96-42.53L137.33-44.35L137.33-7.82L137.33-7.82Q137.33-5.52 138.72-3.79L138.72-3.79L138.72-3.79Q140.11-2.06 142.66-2.06L142.66-2.06L142.66-2.06Q144.77-2.06 146.33-3.26L146.33-3.26L146.33-3.26Q147.89-4.46 148.68-6.22L148.68-6.22L148.68-6.22Q149.47-7.97 149.47-9.55L149.47-9.55L149.47-9.55Q149.47-11.95 148.22-14.50L148.22-14.50L148.22-14.50Q146.98-17.04 144.98-18.67L144.98-18.67L144.98-18.67Q142.99-20.30 140.83-20.30L140.83-20.30L145.10-23.86L145.10-23.86Q147.17-23.18 149.02-21.29L149.02-21.29L149.02-21.29Q150.86-19.39 151.97-17.02L151.97-17.02L151.97-17.02Q153.07-14.64 153.07-12.67L153.07-12.67ZM171.12-24.43L171.12-24.43Q173.71-24.43 175.44-23.04L175.44-23.04L175.44-23.04Q177.17-21.65 177.17-18.91L177.17-18.91L177.17-18.91Q177.17-16.70 174.79-13.99L174.79-13.99L174.79-13.99Q172.42-11.28 169.22-9.02L169.22-9.02L169.22-9.02Q166.03-6.77 163.78-5.86L163.78-5.86L163.78-5.86Q164.98-3.94 166.51-3.19L166.51-3.19L166.51-3.19Q168.05-2.45 170.11-2.45L170.11-2.45L170.11-2.45Q172.42-2.45 174.70-3.62L174.70-3.62L174.70-3.62Q176.98-4.80 178.46-6.67L178.46-6.67L179.04-5.66L179.04-5.66Q176.69-2.64 174.05-1.03L174.05-1.03L174.05-1.03Q171.41 0.58 167.57 0.58L167.57 0.58L167.57 0.58Q164.64 0.58 162.34-0.86L162.34-0.86L162.34-0.86Q160.03-2.30 158.74-4.73L158.74-4.73L158.74-4.73Q157.44-7.15 157.44-9.98L157.44-9.98L157.44-9.98Q157.44-13.54 159.36-16.90L159.36-16.90L159.36-16.90Q161.28-20.26 164.45-22.34L164.45-22.34L164.45-22.34Q167.62-24.43 171.12-24.43L171.12-24.43ZM168.62-21.41L168.62-21.41Q166.51-21.41 164.86-20.06L164.86-20.06L164.86-20.06Q163.20-18.72 162.26-16.61L162.26-16.61L162.26-16.61Q161.33-14.50 161.33-12.24L161.33-12.24L161.33-12.24Q161.33-9.26 162.72-7.15L162.72-7.15L162.72-7.15Q164.74-8.06 167.09-9.91L167.09-9.91L167.09-9.91Q169.44-11.76 171.07-13.92L171.07-13.92L171.07-13.92Q172.70-16.08 172.70-17.86L172.70-17.86L172.70-17.86Q172.70-21.41 168.62-21.41L168.62-21.41ZM213.50-37.30L213.50-37.30Q215.47-36 216.58-33.91L216.58-33.91L216.58-33.91Q217.68-31.82 217.68-29.71L217.68-29.71L217.68-29.71Q217.68-26.35 215.47-21.65L215.47-21.65L204.77 1.54L190.70-31.92L195.07-34.18L206.16-6.77L211.92-18.82L211.92-18.82Q212.93-21.36 213.41-22.75L213.41-22.75L213.41-22.75Q213.89-24.14 213.89-25.49L213.89-25.49L213.89-25.49Q213.89-29.81 209.57-33.07L209.57-33.07L213.50-37.30ZM226.80-40.03L225.17-28.85L223.58-28.27L221.62-38.26L226.80-40.03ZM226.75-23.81L226.75-4.03L226.75-4.03Q226.75-3.31 227.11-2.86L227.11-2.86L227.11-2.86Q227.47-2.40 228.14-2.40L228.14-2.40L228.14-2.40Q228.67-2.40 229.32-2.88L229.32-2.88L229.32-2.88Q229.97-3.36 230.64-4.27L230.64-4.27L231.41-3.55L231.41-3.55Q230.30-1.49 228.74-0.62L228.74-0.62L228.74-0.62Q227.18 0.24 225.89 0.24L225.89 0.24L225.89 0.24Q224.16 0.24 223.22-0.86L223.22-0.86L223.22-0.86Q222.29-1.97 222.29-4.61L222.29-4.61L222.29-22.08L226.75-23.81ZM255.07-44.35L255.07-4.27L255.07-4.27Q255.07-3.60 255.38-3.05L255.38-3.05L255.38-3.05Q255.70-2.50 256.37-2.50L256.37-2.50L256.37-2.50Q257.04-2.50 257.71-3.10L257.71-3.10L257.71-3.10Q258.38-3.70 258.72-4.42L258.72-4.42L259.63-3.65L259.63-3.65Q258.86-2.02 257.45-0.89L257.45-0.89L257.45-0.89Q256.03 0.24 254.69 0.24L254.69 0.24L254.69 0.24Q252.48 0.24 251.47-1.01L251.47-1.01L251.47-1.01Q250.46-2.26 250.51-5.33L250.51-5.33L250.32-5.33L250.32-5.33Q247.39 0.58 243.17 0.58L243.17 0.58L243.17 0.58Q238.99 0.58 236.76-2.33L236.76-2.33L236.76-2.33Q234.53-5.23 234.53-9.60L234.53-9.60L234.53-9.60Q234.53-13.06 236.02-16.46L236.02-16.46L236.02-16.46Q237.50-19.87 240.26-22.08L240.26-22.08L240.26-22.08Q243.02-24.29 246.62-24.29L246.62-24.29L246.62-24.29Q248.88-24.29 250.56-23.14L250.56-23.14L250.56-42.53L255.07-44.35ZM246.34-21.46L246.34-21.46Q243.65-21.46 241.90-19.78L241.90-19.78L241.90-19.78Q240.14-18.10 239.33-15.72L239.33-15.72L239.33-15.72Q238.51-13.34 238.51-11.28L238.51-11.28L238.51-11.28Q238.51-9.65 239.09-7.68L239.09-7.68L239.09-7.68Q239.66-5.71 240.96-4.30L240.96-4.30L240.96-4.30Q242.26-2.88 244.27-2.88L244.27-2.88L244.27-2.88Q247.92-2.88 249.24-6.02L249.24-6.02L249.24-6.02Q250.56-9.17 250.56-12.96L250.56-12.96L250.56-19.54L250.56-19.54Q249.74-20.40 248.66-20.93L248.66-20.93L248.66-20.93Q247.58-21.46 246.34-21.46L246.34-21.46ZM276.14-24.43L276.14-24.43Q278.74-24.43 280.46-23.04L280.46-23.04L280.46-23.04Q282.19-21.65 282.19-18.91L282.19-18.91L282.19-18.91Q282.19-16.70 279.82-13.99L279.82-13.99L279.82-13.99Q277.44-11.28 274.25-9.02L274.25-9.02L274.25-9.02Q271.06-6.77 268.80-5.86L268.80-5.86L268.80-5.86Q270.00-3.94 271.54-3.19L271.54-3.19L271.54-3.19Q273.07-2.45 275.14-2.45L275.14-2.45L275.14-2.45Q277.44-2.45 279.72-3.62L279.72-3.62L279.72-3.62Q282.00-4.80 283.49-6.67L283.49-6.67L284.06-5.66L284.06-5.66Q281.71-2.64 279.07-1.03L279.07-1.03L279.07-1.03Q276.43 0.58 272.59 0.58L272.59 0.58L272.59 0.58Q269.66 0.58 267.36-0.86L267.36-0.86L267.36-0.86Q265.06-2.30 263.76-4.73L263.76-4.73L263.76-4.73Q262.46-7.15 262.46-9.98L262.46-9.98L262.46-9.98Q262.46-13.54 264.38-16.90L264.38-16.90L264.38-16.90Q266.30-20.26 269.47-22.34L269.47-22.34L269.47-22.34Q272.64-24.43 276.14-24.43L276.14-24.43ZM273.65-21.41L273.65-21.41Q271.54-21.41 269.88-20.06L269.88-20.06L269.88-20.06Q268.22-18.72 267.29-16.61L267.29-16.61L267.29-16.61Q266.35-14.50 266.35-12.24L266.35-12.24L266.35-12.24Q266.35-9.26 267.74-7.15L267.74-7.15L267.74-7.15Q269.76-8.06 272.11-9.91L272.11-9.91L272.11-9.91Q274.46-11.76 276.10-13.92L276.10-13.92L276.10-13.92Q277.73-16.08 277.73-17.86L277.73-17.86L277.73-17.86Q277.73-21.41 273.65-21.41L273.65-21.41ZM298.70-24.43L299.57-23.42L299.57-23.42Q295.97-21.12 293.90-18.29L293.90-18.29L293.90-18.29Q291.84-15.46 291.84-11.62L291.84-11.62L291.84-11.62Q291.84-9.46 292.75-7.27L292.75-7.27L292.75-7.27Q293.66-5.09 295.49-3.65L295.49-3.65L295.49-3.65Q297.31-2.21 299.86-2.21L299.86-2.21L299.86-2.21Q301.92-2.21 303.53-3.17L303.53-3.17L303.53-3.17Q305.14-4.13 306.02-5.76L306.02-5.76L306.02-5.76Q306.91-7.39 306.91-9.36L306.91-9.36L306.91-9.36Q306.91-11.62 305.54-13.97L305.54-13.97L305.54-13.97Q304.18-16.32 301.97-17.95L301.97-17.95L301.97-17.95Q299.76-19.58 297.46-19.78L297.46-19.78L297.46-19.78Q298.42-20.74 299.76-21.79L299.76-21.79L299.76-21.79Q301.10-22.85 302.50-23.86L302.50-23.86L302.50-23.86Q305.81-22.75 307.73-19.66L307.73-19.66L307.73-19.66Q309.65-16.56 309.65-12.77L309.65-12.77L309.65-12.77Q309.65-9.41 308.28-6.31L308.28-6.31L308.28-6.31Q306.91-3.22 304.27-1.27L304.27-1.27L304.27-1.27Q301.63 0.67 298.03 0.67L298.03 0.67L298.03 0.67Q295.15 0.67 292.73-0.74L292.73-0.74L292.73-0.74Q290.30-2.16 288.91-4.61L288.91-4.61L288.91-4.61Q287.52-7.06 287.52-10.03L287.52-10.03L287.52-10.03Q287.52-15.26 290.62-19.10L290.62-19.10L290.62-19.10Q293.71-22.94 298.70-24.43L298.70-24.43ZM340.75-34.22L340.75-34.22Q346.51-34.22 349.54-30.98L349.54-30.98L349.54-30.98Q352.56-27.74 352.56-22.22L352.56-22.22L352.56-22.22Q352.56-16.13 348.74-11.02L348.74-11.02L348.74-11.02Q344.93-5.90 338.90-2.83L338.90-2.83L338.90-2.83Q332.88 0.24 326.59 0.62L326.59 0.62L326.59-25.97L331.06-27.60L331.06-1.97L331.06-1.97Q335.81-3.22 339.50-6.02L339.50-6.02L339.50-6.02Q343.20-8.83 345.29-12.82L345.29-12.82L345.29-12.82Q347.38-16.80 347.38-21.41L347.38-21.41L347.38-21.41Q347.38-24.05 346.46-26.30L346.46-26.30L346.46-26.30Q345.55-28.56 343.61-30L343.61-30L343.61-30Q341.66-31.44 338.69-31.44L338.69-31.44L338.69-31.44Q334.90-31.44 331.18-29.95L331.18-29.95L331.18-29.95Q327.46-28.46 324.48-25.97L324.48-25.97L323.52-26.98L323.52-26.98Q326.59-30 331.58-32.11L331.58-32.11L331.58-32.11Q336.58-34.22 340.75-34.22L340.75-34.22ZM367.06-24.43L367.92-23.42L367.92-23.42Q364.32-21.12 362.26-18.29L362.26-18.29L362.26-18.29Q360.19-15.46 360.19-11.62L360.19-11.62L360.19-11.62Q360.19-9.46 361.10-7.27L361.10-7.27L361.10-7.27Q362.02-5.09 363.84-3.65L363.84-3.65L363.84-3.65Q365.66-2.21 368.21-2.21L368.21-2.21L368.21-2.21Q370.27-2.21 371.88-3.17L371.88-3.17L371.88-3.17Q373.49-4.13 374.38-5.76L374.38-5.76L374.38-5.76Q375.26-7.39 375.26-9.36L375.26-9.36L375.26-9.36Q375.26-11.62 373.90-13.97L373.90-13.97L373.90-13.97Q372.53-16.32 370.32-17.95L370.32-17.95L370.32-17.95Q368.11-19.58 365.81-19.78L365.81-19.78L365.81-19.78Q366.77-20.74 368.11-21.79L368.11-21.79L368.11-21.79Q369.46-22.85 370.85-23.86L370.85-23.86L370.85-23.86Q374.16-22.75 376.08-19.66L376.08-19.66L376.08-19.66Q378-16.56 378-12.77L378-12.77L378-12.77Q378-9.41 376.63-6.31L376.63-6.31L376.63-6.31Q375.26-3.22 372.62-1.27L372.62-1.27L372.62-1.27Q369.98 0.67 366.38 0.67L366.38 0.67L366.38 0.67Q363.50 0.67 361.08-0.74L361.08-0.74L361.08-0.74Q358.66-2.16 357.26-4.61L357.26-4.61L357.26-4.61Q355.87-7.06 355.87-10.03L355.87-10.03L355.87-10.03Q355.87-15.26 358.97-19.10L358.97-19.10L358.97-19.10Q362.06-22.94 367.06-24.43L367.06-24.43ZM409.54-25.78L409.54-25.78Q412.94-24.19 412.94-20.11L412.94-20.11L412.94-20.11Q412.94-19.15 412.73-17.98L412.73-17.98L412.73-17.98Q412.51-16.80 412.18-15.94L412.18-15.94L405.79-0.82L405.79-0.82Q405.55 0.05 404.45 0.05L404.45 0.05L404.45 0.05Q403.20 0.05 402.91-0.86L402.91-0.86L398.98-14.54L393.84-0.96L393.84-0.96Q393.55-0.34 393.29-0.07L393.29-0.07L393.29-0.07Q393.02 0.19 392.45 0.19L392.45 0.19L392.45 0.19Q391.87 0.19 391.58-0.05L391.58-0.05L391.58-0.05Q391.30-0.29 391.10-0.72L391.10-0.72L385.73-17.57L385.73-17.57Q385.34-18.91 384.82-19.44L384.82-19.44L384.82-19.44Q384.29-19.97 383.33-19.97L383.33-19.97L383.33-19.97Q382.22-19.97 381.26-19.01L381.26-19.01L380.74-19.78L380.74-19.78Q381.79-21.70 383.26-22.85L383.26-22.85L383.26-22.85Q384.72-24 386.54-24L386.54-24L386.54-24Q387.46-24 388.03-23.38L388.03-23.38L388.03-23.38Q388.61-22.75 388.94-21.96L388.94-21.96L388.94-21.96Q389.28-21.17 389.90-19.25L389.90-19.25L393.98-6.53L398.16-17.52L396.62-22.80L401.09-24.48L406.18-6.43L409.01-13.30L409.01-13.30Q409.39-14.06 409.39-15.60L409.39-15.60L409.39-15.60Q409.39-17.38 408.50-18.74L408.50-18.74L408.50-18.74Q407.62-20.11 406.03-20.93L406.03-20.93L409.54-25.78ZM435.22-24.43L435.22-24.43Q437.14-24.43 437.71-23.02L437.71-23.02L437.71-23.02Q438.29-21.60 438.29-19.10L438.29-19.10L438.29-17.62L438.29-4.03L438.29-4.03Q438.29-3.50 438.62-2.95L438.62-2.95L438.62-2.95Q438.96-2.40 439.58-2.40L439.58-2.40L439.58-2.40Q440.40-2.40 440.98-2.93L440.98-2.93L440.98-2.93Q441.55-3.46 442.13-4.27L442.13-4.27L442.85-3.55L442.85-3.55Q442.13-2.02 440.69-0.89L440.69-0.89L440.69-0.89Q439.25 0.24 437.95 0.24L437.95 0.24L437.95 0.24Q436.03 0.24 434.98-0.96L434.98-0.96L434.98-0.96Q433.92-2.16 433.92-4.61L433.92-4.61L433.92-17.33L433.92-17.33Q433.92-18.05 433.78-18.53L433.78-18.53L433.78-18.53Q433.63-19.01 433.06-19.01L433.06-19.01L433.06-19.01Q431.09-19.01 429.02-15.22L429.02-15.22L429.02-15.22Q426.96-11.42 425.50-6.74L425.50-6.74L425.50-6.74Q424.03-2.06 424.03-0.58L424.03-0.58L419.86 0.67L419.86-19.87L419.86-19.87Q419.86-20.54 419.50-21.10L419.50-21.10L419.50-21.10Q419.14-21.65 418.46-21.65L418.46-21.65L418.46-21.65Q417.31-21.65 415.97-19.58L415.97-19.58L415.25-20.35L415.25-20.35Q415.87-22.08 417.31-23.26L417.31-23.26L417.31-23.26Q418.75-24.43 420.19-24.43L420.19-24.43L420.19-24.43Q422.21-24.43 423.19-23.47L423.19-23.47L423.19-23.47Q424.18-22.51 424.18-20.83L424.18-20.83L424.18-8.21L424.37-8.21L424.37-8.21Q425.66-12.48 426.86-15.65L426.86-15.65L426.86-15.65Q428.06-18.82 430.22-21.62L430.22-21.62L430.22-21.62Q432.38-24.43 435.22-24.43L435.22-24.43ZM452.35-44.35L452.35-4.03L452.35-4.03Q452.35-3.46 452.69-2.93L452.69-2.93L452.69-2.93Q453.02-2.40 453.84-2.40L453.84-2.40L453.84-2.40Q454.51-2.40 455.26-3L455.26-3L455.26-3Q456-3.60 456.38-4.27L456.38-4.27L457.20-3.55L457.20-3.55Q456.38-1.97 454.94-0.86L454.94-0.86L454.94-0.86Q453.50 0.24 452.06 0.24L452.06 0.24L452.06 0.24Q448.03 0.24 448.03-4.61L448.03-4.61L448.03-42.53L452.35-44.35ZM471.31-24.43L472.18-23.42L472.18-23.42Q468.58-21.12 466.51-18.29L466.51-18.29L466.51-18.29Q464.45-15.46 464.45-11.62L464.45-11.62L464.45-11.62Q464.45-9.46 465.36-7.27L465.36-7.27L465.36-7.27Q466.27-5.09 468.10-3.65L468.10-3.65L468.10-3.65Q469.92-2.21 472.46-2.21L472.46-2.21L472.46-2.21Q474.53-2.21 476.14-3.17L476.14-3.17L476.14-3.17Q477.74-4.13 478.63-5.76L478.63-5.76L478.63-5.76Q479.52-7.39 479.52-9.36L479.52-9.36L479.52-9.36Q479.52-11.62 478.15-13.97L478.15-13.97L478.15-13.97Q476.78-16.32 474.58-17.95L474.58-17.95L474.58-17.95Q472.37-19.58 470.06-19.78L470.06-19.78L470.06-19.78Q471.02-20.74 472.37-21.79L472.37-21.79L472.37-21.79Q473.71-22.85 475.10-23.86L475.10-23.86L475.10-23.86Q478.42-22.75 480.34-19.66L480.34-19.66L480.34-19.66Q482.26-16.56 482.26-12.77L482.26-12.77L482.26-12.77Q482.26-9.41 480.89-6.31L480.89-6.31L480.89-6.31Q479.52-3.22 476.88-1.27L476.88-1.27L476.88-1.27Q474.24 0.67 470.64 0.67L470.64 0.67L470.64 0.67Q467.76 0.67 465.34-0.74L465.34-0.74L465.34-0.74Q462.91-2.16 461.52-4.61L461.52-4.61L461.52-4.61Q460.13-7.06 460.13-10.03L460.13-10.03L460.13-10.03Q460.13-15.26 463.22-19.10L463.22-19.10L463.22-19.10Q466.32-22.94 471.31-24.43L471.31-24.43ZM499.39-24L499.39-24Q501.74-24 503.83-22.99L503.83-22.99L503.83-22.99Q505.92-21.98 506.88-19.92L506.88-19.92L503.42-18.05L503.42-18.05Q502.66-19.15 501.31-20.04L501.31-20.04L501.31-20.04Q499.97-20.93 498.43-20.93L498.43-20.93L498.43-20.93Q495.98-20.93 494.16-19.66L494.16-19.66L494.16-19.66Q492.34-18.38 491.38-16.22L491.38-16.22L491.38-16.22Q490.42-14.06 490.42-11.42L490.42-11.42L490.42-11.42Q490.42-7.63 491.71-5.26L491.71-5.26L491.71-5.26Q493.01-2.88 495.79-2.88L495.79-2.88L495.79-2.88Q499.73-2.88 501.22-6.05L501.22-6.05L501.22-6.05Q502.70-9.22 502.70-12.96L502.70-12.96L502.70-15.12L506.93-16.90L506.93-4.27L506.93-4.27Q506.93-3.65 507.26-3.07L507.26-3.07L507.26-3.07Q507.60-2.50 508.27-2.50L508.27-2.50L508.27-2.50Q509.66-2.50 510.82-4.42L510.82-4.42L511.54-3.65L511.54-3.65Q510.96-2.02 509.52-0.89L509.52-0.89L509.52-0.89Q508.08 0.24 506.64 0.24L506.64 0.24L506.64 0.24Q504.58 0.24 503.59-1.30L503.59-1.30L503.59-1.30Q502.61-2.83 502.61-5.38L502.61-5.38L502.51-5.38L502.51-5.38Q501.31-2.83 499.27-1.13L499.27-1.13L499.27-1.13Q497.23 0.58 494.98 0.58L494.98 0.58L494.98 0.58Q490.90 0.58 488.81-2.23L488.81-2.23L488.81-2.23Q486.72-5.04 486.72-9.74L486.72-9.74L486.72-9.74Q486.72-13.49 488.40-16.78L488.40-16.78L488.40-16.78Q490.08-20.06 492.98-22.03L492.98-22.03L492.98-22.03Q495.89-24 499.39-24L499.39-24ZM534.82-44.35L534.82-4.27L534.82-4.27Q534.82-3.60 535.13-3.05L535.13-3.05L535.13-3.05Q535.44-2.50 536.11-2.50L536.11-2.50L536.11-2.50Q536.78-2.50 537.46-3.10L537.46-3.10L537.46-3.10Q538.13-3.70 538.46-4.42L538.46-4.42L539.38-3.65L539.38-3.65Q538.61-2.02 537.19-0.89L537.19-0.89L537.19-0.89Q535.78 0.24 534.43 0.24L534.43 0.24L534.43 0.24Q532.22 0.24 531.22-1.01L531.22-1.01L531.22-1.01Q530.21-2.26 530.26-5.33L530.26-5.33L530.06-5.33L530.06-5.33Q527.14 0.58 522.91 0.58L522.91 0.58L522.91 0.58Q518.74 0.58 516.50-2.33L516.50-2.33L516.50-2.33Q514.27-5.23 514.27-9.60L514.27-9.60L514.27-9.60Q514.27-13.06 515.76-16.46L515.76-16.46L515.76-16.46Q517.25-19.87 520.01-22.08L520.01-22.08L520.01-22.08Q522.77-24.29 526.37-24.29L526.37-24.29L526.37-24.29Q528.62-24.29 530.30-23.14L530.30-23.14L530.30-42.53L534.82-44.35ZM526.08-21.46L526.08-21.46Q523.39-21.46 521.64-19.78L521.64-19.78L521.64-19.78Q519.89-18.10 519.07-15.72L519.07-15.72L519.07-15.72Q518.26-13.34 518.26-11.28L518.26-11.28L518.26-11.28Q518.26-9.65 518.83-7.68L518.83-7.68L518.83-7.68Q519.41-5.71 520.70-4.30L520.70-4.30L520.70-4.30Q522-2.88 524.02-2.88L524.02-2.88L524.02-2.88Q527.66-2.88 528.98-6.02L528.98-6.02L528.98-6.02Q530.30-9.17 530.30-12.96L530.30-12.96L530.30-19.54L530.30-19.54Q529.49-20.40 528.41-20.93L528.41-20.93L528.41-20.93Q527.33-21.46 526.08-21.46L526.08-21.46ZM555.89-24.43L555.89-24.43Q558.48-24.43 560.21-23.04L560.21-23.04L560.21-23.04Q561.94-21.65 561.94-18.91L561.94-18.91L561.94-18.91Q561.94-16.70 559.56-13.99L559.56-13.99L559.56-13.99Q557.18-11.28 553.99-9.02L553.99-9.02L553.99-9.02Q550.80-6.77 548.54-5.86L548.54-5.86L548.54-5.86Q549.74-3.94 551.28-3.19L551.28-3.19L551.28-3.19Q552.82-2.45 554.88-2.45L554.88-2.45L554.88-2.45Q557.18-2.45 559.46-3.62L559.46-3.62L559.46-3.62Q561.74-4.80 563.23-6.67L563.23-6.67L563.81-5.66L563.81-5.66Q561.46-2.64 558.82-1.03L558.82-1.03L558.82-1.03Q556.18 0.58 552.34 0.58L552.34 0.58L552.34 0.58Q549.41 0.58 547.10-0.86L547.10-0.86L547.10-0.86Q544.80-2.30 543.50-4.73L543.50-4.73L543.50-4.73Q542.21-7.15 542.21-9.98L542.21-9.98L542.21-9.98Q542.21-13.54 544.13-16.90L544.13-16.90L544.13-16.90Q546.05-20.26 549.22-22.34L549.22-22.34L549.22-22.34Q552.38-24.43 555.89-24.43L555.89-24.43ZM553.39-21.41L553.39-21.41Q551.28-21.41 549.62-20.06L549.62-20.06L549.62-20.06Q547.97-18.72 547.03-16.61L547.03-16.61L547.03-16.61Q546.10-14.50 546.10-12.24L546.10-12.24L546.10-12.24Q546.10-9.26 547.49-7.15L547.49-7.15L547.49-7.15Q549.50-8.06 551.86-9.91L551.86-9.91L551.86-9.91Q554.21-11.76 555.84-13.92L555.84-13.92L555.84-13.92Q557.47-16.08 557.47-17.86L557.47-17.86L557.47-17.86Q557.47-21.41 553.39-21.41L553.39-21.41ZM578.35-18.14L578.35-18.14Q576.19-15.89 574.63-12.26L574.63-12.26L574.63-12.26Q573.07-8.64 573.07-5.66L573.07-5.66L573.07-5.66Q573.07-3.07 574.20-1.32L574.20-1.32L574.20-1.32Q575.33 0.43 577.82 0.43L577.82 0.43L577.82 0.43Q579.84 0.43 581.69-0.62L581.69-0.62L581.69-0.62Q583.54-1.68 584.83-3.36L584.83-3.36L584.30-4.08L584.30-4.08Q582.82-3.07 581.38-3.07L581.38-3.07L581.38-3.07Q579.12-3.07 577.97-4.66L577.97-4.66L577.97-4.66Q576.82-6.24 576.82-8.50L576.82-8.50L576.82-8.50Q576.82-12.14 578.69-15.41L578.69-15.41L578.69-15.41Q580.56-18.67 583.44-21.74L583.44-21.74L582.67-22.42L582.67-22.42Q579.31-20.30 576.53-20.30L576.53-20.30L576.53-20.30Q574.90-20.30 573.55-21.77L573.55-21.77L573.55-21.77Q572.21-23.23 571.49-25.01L571.49-25.01L567.60-20.64L567.60-20.64Q567.94-19.68 569.42-18.43L569.42-18.43L566.21-11.71L567.98-10.90L571.10-17.76L571.10-17.76Q571.92-17.42 572.45-17.33L572.45-17.33L572.45-17.33Q572.98-17.23 573.89-17.23L573.89-17.23L573.89-17.23Q576.24-17.23 578.21-18.29L578.21-18.29L578.35-18.14Z" fill="url(#editing-rainbow-gradient)"></path></g></g><style>text {
  font-size: 64px;
  font-family: Arial Black;
  dominant-baseline: central;
  text-anchor: middle;
}</style></svg>